<?xml version="1.0" encoding="iso-8859-1"?>
<!-- Generator: Adobe Illustrator 19.0.0, SVG Export Plug-In . SVG Version: 6.00 Build 0)  -->
<svg version="1.1" id="Layer_1" xmlns="http://www.w3.org/2000/svg" xmlns:xlink="http://www.w3.org/1999/xlink" x="0px" y="0px"
	 viewBox="0 0 512 512" style="enable-background:new 0 0 512 512;" xml:space="preserve">
<g>
	<g>
		<path d="M79.067,398.099c-19.207,0-34.834,15.626-34.834,34.834c0,19.207,15.626,34.834,34.834,34.834
			s34.834-15.627,34.834-34.834C113.901,413.726,98.274,398.099,79.067,398.099z M79.067,451.179
			c-10.061,0-18.246-8.185-18.246-18.246s8.185-18.246,18.246-18.246s18.246,8.185,18.246,18.246S89.128,451.179,79.067,451.179z"/>
	</g>
</g>
<g>
	<g>
		<path d="M114.454,274.246H43.68c-4.581,0-8.294,3.712-8.294,8.294v70.773c0,4.581,3.712,8.294,8.294,8.294h70.773
			c4.581,0,8.294-3.712,8.294-8.294V282.54C122.747,277.958,119.035,274.246,114.454,274.246z M106.16,345.019H51.974v-54.186
			h54.186V345.019z"/>
	</g>
</g>
<g>
	<g>
		<path d="M114.454,159.24H43.68c-4.581,0-8.294,3.712-8.294,8.294v70.773c0,4.581,3.712,8.294,8.294,8.294h70.773
			c4.581,0,8.294-3.712,8.294-8.294v-70.773C122.747,162.952,119.035,159.24,114.454,159.24z M106.16,230.013H51.974v-54.186h54.186
			V230.013z"/>
	</g>
</g>
<g>
	<g>
		<path d="M114.454,53.08H43.68c-4.581,0-8.294,3.712-8.294,8.294v70.773c0,4.581,3.712,8.294,8.294,8.294h70.773
			c4.581,0,8.294-3.712,8.294-8.294V61.374C122.747,56.792,119.035,53.08,114.454,53.08z M106.16,123.853H51.974V69.667h54.186
			V123.853z"/>
	</g>
</g>
<g>
	<g>
		<path d="M486.013,353.866H269.952L422.73,201.088c4.909-4.908,7.613-11.434,7.613-18.376c0-6.941-2.703-13.468-7.611-18.376
			l-75.066-75.065c-4.908-4.909-11.434-7.613-18.376-7.613c-6.941,0-13.468,2.703-18.376,7.611L158.134,242.048V25.987
			C158.134,11.658,146.476,0,132.147,0H25.987C11.658,0,0,11.658,0,25.987v406.946C0,476.53,35.47,512,79.067,512h406.946
			C500.342,512,512,500.342,512,486.013v-106.16C512,365.524,500.342,353.866,486.013,353.866z M158.133,265.507l164.51-164.508
			c1.775-1.775,4.135-2.752,6.646-2.752s4.87,0.978,6.646,2.753l75.067,75.066c1.775,1.775,2.752,4.135,2.752,6.646
			s-0.978,4.87-2.753,6.646L246.492,353.866h-28.085c0.206-0.728,0.318-1.485,0.318-2.255c0-2.199-0.874-4.308-2.428-5.865
			l-50.044-50.044c-1.556-1.555-3.665-2.428-5.865-2.428c-0.77,0-1.527,0.113-2.255,0.318V265.507z M198.704,351.61l-2.256,2.255
			h-38.314v-38.314l2.255-2.256L198.704,351.61z M79.067,495.413c-34.451,0-62.479-28.028-62.479-62.479V25.987
			c0-5.183,4.217-9.4,9.4-9.4h106.16c5.183,0,9.4,4.217,9.4,9.4v406.946C141.546,467.384,113.518,495.413,79.067,495.413z
			 M495.413,486.013c0,5.183-4.217,9.4-9.4,9.4H127.436c9.688-7.517,17.599-17.221,22.957-28.381v1.288
			c0,4.581,3.712,8.294,8.294,8.294h70.773c4.581,0,8.294-3.712,8.294-8.294v-70.773c0-4.581-3.712-8.294-8.294-8.294h-70.773
			c-0.187,0-0.369,0.016-0.553,0.028v-18.827h327.879c5.183,0,9.4,4.217,9.4,9.4V486.013z M166.981,460.026V405.84h54.186v54.186
			H166.981z"/>
	</g>
</g>
<g>
	<g>
		<path d="M344.466,389.253h-70.773c-4.581,0-8.294,3.712-8.294,8.294v70.773c0,4.581,3.712,8.294,8.294,8.294h70.773
			c4.581,0,8.294-3.712,8.294-8.294v-70.773C352.76,392.965,349.048,389.253,344.466,389.253z M336.173,460.026h-54.186V405.84
			h54.186V460.026z"/>
	</g>
</g>
<g>
	<g>
		<path d="M450.626,389.253h-70.773c-4.581,0-8.294,3.712-8.294,8.294v70.773c0,4.581,3.712,8.294,8.294,8.294h70.773
			c4.581,0,8.294-3.712,8.294-8.294v-70.773C458.92,392.965,455.208,389.253,450.626,389.253z M442.333,460.026h-54.186V405.84
			h54.186V460.026z"/>
	</g>
</g>
<g>
	<g>
		<path d="M297.62,264.424l-50.044-50.044c-3.24-3.238-8.491-3.238-11.73,0l-50.044,50.044c-3.239,3.24-3.239,8.491,0,11.73
			l50.043,50.044c1.62,1.619,3.743,2.428,5.865,2.428c2.122,0,4.245-0.809,5.865-2.428l50.044-50.044
			C300.859,272.914,300.859,267.663,297.62,264.424z M241.71,308.603l-38.315-38.315l38.315-38.315l38.315,38.315L241.71,308.603z"
			/>
	</g>
</g>
<g>
	<g>
		<path d="M372.686,189.358l-50.043-50.043c-3.239-3.237-8.489-3.239-11.729,0l-50.044,50.043c-1.555,1.556-2.428,3.665-2.428,5.865
			s0.874,4.308,2.428,5.865l50.043,50.043c1.556,1.555,3.665,2.428,5.865,2.428c2.201,0,4.308-0.874,5.865-2.428l50.043-50.044
			C375.925,197.848,375.925,192.597,372.686,189.358z M316.778,233.537l-38.315-38.315l38.315-38.314l38.314,38.314L316.778,233.537
			z"/>
	</g>
</g>
<g>
</g>
<g>
</g>
<g>
</g>
<g>
</g>
<g>
</g>
<g>
</g>
<g>
</g>
<g>
</g>
<g>
</g>
<g>
</g>
<g>
</g>
<g>
</g>
<g>
</g>
<g>
</g>
<g>
</g>
</svg>
